{"asset":{"version":"2.0","generator":"Blockbench 5.1.3 glTF exporter"},"scenes":[{"nodes":[0,1],"name":"blockbench_export"}],"scene":0,"nodes":[{"translation":[0.5624999999999996,0,0],"name":"mesh","mesh":0},{"rotation":[0,0.13052619222005157,0,0.9914448613738104],"translation":[-0.8062499999999999,0,0.09375],"name":"mesh","mesh":1}],"bufferViews":[{"buffer":0,"byteOffset":0,"byteLength":1632,"target":34962,"byteStride":12},{"buffer":0,"byteOffset":1632,"byteLength":1632,"target":34962,"byteStride":12},{"buffer":0,"byteOffset":3264,"byteLength":1088,"target":34962,"byteStride":8},{"buffer":0,"byteOffset":4352,"byteLength":408,"target":34963},{"buffer":0,"byteOffset":4760,"byteLength":1632,"target":34962,"byteStride":12},{"buffer":0,"byteOffset":6392,"byteLength":1632,"target":34962,"byteStride":12},{"buffer":0,"byteOffset":8024,"byteLength":1088,"target":34962,"byteStride":8},{"buffer":0,"byteOffset":9112,"byteLength":408,"target":34963}],"buffers":[{"byteLength":9520,"uri":"data:application/octet-stream;base64,"}],"accessors":[{"bufferView":0,"componentType":5126,"count":136,"max":[0.5249999761581421,1.337499976158142,0.8999999761581421],"min":[-0.5249999761581421,0,-0.8125],"type":"VEC3"},{"bufferView":1,"componentType":5126,"count":136,"max":[1,1,1],"min":[-1,-1,-1],"type":"VEC3"},{"bufferView":2,"componentType":5126,"count":136,"max":[0.71875,0.629687488079071],"min":[0,0],"type":"VEC2"},{"bufferView":3,"componentType":5123,"count":204,"max":[135],"min":[0],"type":"SCALAR"},{"bufferView":4,"componentType":5126,"count":136,"max":[0.5249999761581421,1.337499976158142,0.8999999761581421],"min":[-0.5249999761581421,0,-0.8125],"type":"VEC3"},{"bufferView":5,"componentType":5126,"count":136,"max":[1,1,1],"min":[-1,-1,-1],"type":"VEC3"},{"bufferView":6,"componentType":5126,"count":136,"max":[0.71875,0.621874988079071],"min":[0,0],"type":"VEC2"},{"bufferView":7,"componentType":5123,"count":204,"max":[135],"min":[0],"type":"SCALAR"}],"materials":[{"pbrMetallicRoughness":{"metallicFactor":0,"roughnessFactor":1,"baseColorTexture":{"index":0}},"alphaMode":"MASK","alphaCutoff":0.05,"doubleSided":true}],"textures":[{"sampler":0,"source":0,"name":"Boots"}],"samplers":[{"magFilter":9728,"minFilter":9728,"wrapS":33071,"wrapT":33071}],"images":[{"mimeType":"image/png","uri":"data:image/png;base64,"}],"meshes":[{"primitives":[{"mode":4,"attributes":{"POSITION":0,"NORMAL":1,"TEXCOORD_0":2},"indices":3,"material":0}]},{"primitives":[{"mode":4,"attributes":{"POSITION":4,"NORMAL":5,"TEXCOORD_0":6},"indices":7,"material":0}]}]}