{"asset":{"version":"2.0","generator":"Blockbench 5.1.3 glTF exporter"},"scenes":[{"nodes":[0,1],"name":"blockbench_export"}],"scene":0,"nodes":[{"translation":[0,0.375,0],"name":"ChairTop","mesh":0},{"name":"Pole","mesh":1}],"bufferViews":[{"buffer":0,"byteOffset":0,"byteLength":1200,"target":34962,"byteStride":12},{"buffer":0,"byteOffset":1200,"byteLength":1200,"target":34962,"byteStride":12},{"buffer":0,"byteOffset":2400,"byteLength":800,"target":34962,"byteStride":8},{"buffer":0,"byteOffset":3200,"byteLength":240,"target":34963},{"buffer":0,"byteOffset":3440,"byteLength":1200,"target":34962,"byteStride":12},{"buffer":0,"byteOffset":4640,"byteLength":1200,"target":34962,"byteStride":12},{"buffer":0,"byteOffset":5840,"byteLength":800,"target":34962,"byteStride":8},{"buffer":0,"byteOffset":6640,"byteLength":240,"target":34963}],"buffers":[{"byteLength":6880,"uri":"data:application/octet-stream;base64,"}],"accessors":[{"bufferView":0,"componentType":5126,"count":100,"max":[0.32858195900917053,0.3187499940395355,0.3125],"min":[-0.32858195900917053,0.18125000596046448,-0.3125],"type":"VEC3"},{"bufferView":1,"componentType":5126,"count":100,"max":[0.9510565400123596,1,1],"min":[-0.9510565400123596,-1,-1],"type":"VEC3"},{"bufferView":2,"componentType":5126,"count":100,"max":[0.71875,0.59375],"min":[0.007584374863654375,0],"type":"VEC2"},{"bufferView":3,"componentType":5123,"count":120,"max":[99],"min":[0],"type":"SCALAR"},{"bufferView":4,"componentType":5126,"count":100,"max":[0.06571638584136963,0.5625,0.0625],"min":[-0.06571638584136963,0,-0.0625],"type":"VEC3"},{"bufferView":5,"componentType":5126,"count":100,"max":[0.9510565400123596,1,1],"min":[-0.9510565400123596,-1,-1],"type":"VEC3"},{"bufferView":6,"componentType":5126,"count":100,"max":[0.7047343850135803,0.90625],"min":[0.01094374991953373,0.21875],"type":"VEC2"},{"bufferView":7,"componentType":5123,"count":120,"max":[99],"min":[0],"type":"SCALAR"}],"materials":[{"pbrMetallicRoughness":{"metallicFactor":0,"roughnessFactor":1,"baseColorTexture":{"index":0}},"alphaMode":"MASK","alphaCutoff":0.05,"doubleSided":true}],"textures":[{"sampler":0,"source":0,"name":"ChairTexture"}],"samplers":[{"magFilter":9728,"minFilter":9728,"wrapS":33071,"wrapT":33071}],"images":[{"mimeType":"image/png","uri":"data:image/png;base64,"}],"meshes":[{"primitives":[{"mode":4,"attributes":{"POSITION":0,"NORMAL":1,"TEXCOORD_0":2},"indices":3,"material":0}]},{"primitives":[{"mode":4,"attributes":{"POSITION":4,"NORMAL":5,"TEXCOORD_0":6},"indices":7,"material":0}]}]}