{"asset":{"version":"2.0","generator":"Blockbench 5.1.3 glTF exporter"},"scenes":[{"nodes":[0,1,2,3,4],"name":"blockbench_export"}],"scene":0,"nodes":[{"translation":[0,0.375,0],"name":"mesh","mesh":0},{"translation":[-1.1937499999999996,0,-0.8312499999999998],"name":"cylinder","mesh":1},{"translation":[1.2125,0,-0.8312499999999998],"name":"cylinder","mesh":2},{"translation":[1.2125,0,0.8437500000000002],"name":"cylinder","mesh":3},{"translation":[-1.2125000000000001,0,0.8500000000000002],"name":"cylinder","mesh":4}],"bufferViews":[{"buffer":0,"byteOffset":0,"byteLength":1056,"target":34962,"byteStride":12},{"buffer":0,"byteOffset":1056,"byteLength":1056,"target":34962,"byteStride":12},{"buffer":0,"byteOffset":2112,"byteLength":704,"target":34962,"byteStride":8},{"buffer":0,"byteOffset":2816,"byteLength":264,"target":34963},{"buffer":0,"byteOffset":3080,"byteLength":1440,"target":34962,"byteStride":12},{"buffer":0,"byteOffset":4520,"byteLength":1440,"target":34962,"byteStride":12},{"buffer":0,"byteOffset":5960,"byteLength":960,"target":34962,"byteStride":8},{"buffer":0,"byteOffset":6920,"byteLength":288,"target":34963},{"buffer":0,"byteOffset":7208,"byteLength":1440,"target":34962,"byteStride":12},{"buffer":0,"byteOffset":8648,"byteLength":1440,"target":34962,"byteStride":12},{"buffer":0,"byteOffset":10088,"byteLength":960,"target":34962,"byteStride":8},{"buffer":0,"byteOffset":11048,"byteLength":288,"target":34963},{"buffer":0,"byteOffset":11336,"byteLength":1440,"target":34962,"byteStride":12},{"buffer":0,"byteOffset":12776,"byteLength":1440,"target":34962,"byteStride":12},{"buffer":0,"byteOffset":14216,"byteLength":960,"target":34962,"byteStride":8},{"buffer":0,"byteOffset":15176,"byteLength":288,"target":34963},{"buffer":0,"byteOffset":15464,"byteLength":1440,"target":34962,"byteStride":12},{"buffer":0,"byteOffset":16904,"byteLength":1440,"target":34962,"byteStride":12},{"buffer":0,"byteOffset":18344,"byteLength":960,"target":34962,"byteStride":8},{"buffer":0,"byteOffset":19304,"byteLength":288,"target":34963}],"buffers":[{"byteLength":19592,"uri":"data:application/octet-stream;base64,"}],"accessors":[{"bufferView":0,"componentType":5126,"count":88,"max":[1.294194221496582,0.40625,0.9191941618919373],"min":[-1.294194221496582,0,-0.9191941618919373],"type":"VEC3"},{"bufferView":1,"componentType":5126,"count":88,"max":[1,1,1],"min":[-1,-1,-1],"type":"VEC3"},{"bufferView":2,"componentType":5126,"count":88,"max":[0.659821093082428,0.47198593616485596],"min":[0.000335156248183921,0],"type":"VEC2"},{"bufferView":3,"componentType":5123,"count":132,"max":[87],"min":[0],"type":"SCALAR"},{"bufferView":4,"componentType":5126,"count":120,"max":[0.0625,0.375,0.0625],"min":[-0.0625,0,-0.0625],"type":"VEC3"},{"bufferView":5,"componentType":5126,"count":120,"max":[1,1,1],"min":[-1,-1,-1],"type":"VEC3"},{"bufferView":6,"componentType":5126,"count":120,"max":[0.2953414022922516,0.4375],"min":[0.2421875,0.2578125],"type":"VEC2"},{"bufferView":7,"componentType":5123,"count":144,"max":[119],"min":[0],"type":"SCALAR"},{"bufferView":8,"componentType":5126,"count":120,"max":[0.0625,0.375,0.0625],"min":[-0.0625,0,-0.0625],"type":"VEC3"},{"bufferView":9,"componentType":5126,"count":120,"max":[1,1,1],"min":[-1,-1,-1],"type":"VEC3"},{"bufferView":10,"componentType":5126,"count":120,"max":[0.4453125,0.484375],"min":[0.2593460977077484,0.3671875],"type":"VEC2"},{"bufferView":11,"componentType":5123,"count":144,"max":[119],"min":[0],"type":"SCALAR"},{"bufferView":12,"componentType":5126,"count":120,"max":[0.0625,0.375,0.0625],"min":[-0.0625,0,-0.0625],"type":"VEC3"},{"bufferView":13,"componentType":5126,"count":120,"max":[1,1,1],"min":[-1,-1,-1],"type":"VEC3"},{"bufferView":14,"componentType":5126,"count":120,"max":[0.4921875,0.484375],"min":[0.3843460977077484,0.4140625],"type":"VEC2"},{"bufferView":15,"componentType":5123,"count":144,"max":[119],"min":[0],"type":"SCALAR"},{"bufferView":16,"componentType":5126,"count":120,"max":[0.0625,0.375,0.0625],"min":[-0.0625,0,-0.0625],"type":"VEC3"},{"bufferView":17,"componentType":5126,"count":120,"max":[1,1,1],"min":[-1,-1,-1],"type":"VEC3"},{"bufferView":18,"componentType":5126,"count":120,"max":[0.4921875,0.515625],"min":[0.3374710977077484,0.4375],"type":"VEC2"},{"bufferView":19,"componentType":5123,"count":144,"max":[119],"min":[0],"type":"SCALAR"}],"materials":[{"pbrMetallicRoughness":{"metallicFactor":0,"roughnessFactor":1,"baseColorTexture":{"index":0}},"alphaMode":"MASK","alphaCutoff":0.05,"doubleSided":true}],"textures":[{"sampler":0,"source":0,"name":"CrapsTableTexture"}],"samplers":[{"magFilter":9728,"minFilter":9728,"wrapS":33071,"wrapT":33071}],"images":[{"mimeType":"image/png","uri":"data:image/png;base64,"}],"meshes":[{"primitives":[{"mode":4,"attributes":{"POSITION":0,"NORMAL":1,"TEXCOORD_0":2},"indices":3,"material":0}]},{"primitives":[{"mode":4,"attributes":{"POSITION":4,"NORMAL":5,"TEXCOORD_0":6},"indices":7,"material":0}]},{"primitives":[{"mode":4,"attributes":{"POSITION":8,"NORMAL":9,"TEXCOORD_0":10},"indices":11,"material":0}]},{"primitives":[{"mode":4,"attributes":{"POSITION":12,"NORMAL":13,"TEXCOORD_0":14},"indices":15,"material":0}]},{"primitives":[{"mode":4,"attributes":{"POSITION":16,"NORMAL":17,"TEXCOORD_0":18},"indices":19,"material":0}]}]}