{"asset":{"version":"2.0","generator":"Blockbench 5.1.3 glTF exporter"},"scenes":[{"nodes":[0,1,2,3,4],"name":"blockbench_export"}],"scene":0,"nodes":[{"translation":[0,0.36874999999999997,0],"name":"Tabletop","mesh":0},{"translation":[1.106249999999999,0.00625,0.7312500000000001],"name":"cylinder","mesh":1},{"translation":[1.0749999999999997,0.00625,-0.7312500000000004],"name":"cylinder","mesh":2},{"translation":[-1.1124999999999998,0.00625,-0.7312500000000002],"name":"cylinder","mesh":3},{"translation":[-1.11875,0.00625,0.7250000000000004],"name":"cylinder","mesh":4}],"bufferViews":[{"buffer":0,"byteOffset":0,"byteLength":288,"target":34962,"byteStride":12},{"buffer":0,"byteOffset":288,"byteLength":288,"target":34962,"byteStride":12},{"buffer":0,"byteOffset":576,"byteLength":192,"target":34962,"byteStride":8},{"buffer":0,"byteOffset":768,"byteLength":72,"target":34963},{"buffer":0,"byteOffset":840,"byteLength":1440,"target":34962,"byteStride":12},{"buffer":0,"byteOffset":2280,"byteLength":1440,"target":34962,"byteStride":12},{"buffer":0,"byteOffset":3720,"byteLength":960,"target":34962,"byteStride":8},{"buffer":0,"byteOffset":4680,"byteLength":288,"target":34963},{"buffer":0,"byteOffset":4968,"byteLength":1440,"target":34962,"byteStride":12},{"buffer":0,"byteOffset":6408,"byteLength":1440,"target":34962,"byteStride":12},{"buffer":0,"byteOffset":7848,"byteLength":960,"target":34962,"byteStride":8},{"buffer":0,"byteOffset":8808,"byteLength":288,"target":34963},{"buffer":0,"byteOffset":9096,"byteLength":1440,"target":34962,"byteStride":12},{"buffer":0,"byteOffset":10536,"byteLength":1440,"target":34962,"byteStride":12},{"buffer":0,"byteOffset":11976,"byteLength":960,"target":34962,"byteStride":8},{"buffer":0,"byteOffset":12936,"byteLength":288,"target":34963},{"buffer":0,"byteOffset":13224,"byteLength":1440,"target":34962,"byteStride":12},{"buffer":0,"byteOffset":14664,"byteLength":1440,"target":34962,"byteStride":12},{"buffer":0,"byteOffset":16104,"byteLength":960,"target":34962,"byteStride":8},{"buffer":0,"byteOffset":17064,"byteLength":288,"target":34963}],"buffers":[{"byteLength":17352,"uri":"data:application/octet-stream;base64,"}],"accessors":[{"bufferView":0,"componentType":5126,"count":24,"max":[1.1875,0.17499999701976776,0.8125],"min":[-1.1875,0.012500000186264515,-0.8125],"type":"VEC3"},{"bufferView":1,"componentType":5126,"count":24,"max":[1,1,1],"min":[-1,-1,-1],"type":"VEC3"},{"bufferView":2,"componentType":5126,"count":24,"max":[0.6015625,0.4140625],"min":[0,0],"type":"VEC2"},{"bufferView":3,"componentType":5123,"count":36,"max":[23],"min":[0],"type":"SCALAR"},{"bufferView":4,"componentType":5126,"count":120,"max":[0.0625,0.375,0.0625],"min":[-0.0625,0,-0.0625],"type":"VEC3"},{"bufferView":5,"componentType":5126,"count":120,"max":[1,1,1],"min":[-1,-1,-1],"type":"VEC3"},{"bufferView":6,"componentType":5126,"count":120,"max":[0.390625,0.390625],"min":[0.3521183729171753,0.125],"type":"VEC2"},{"bufferView":7,"componentType":5123,"count":144,"max":[119],"min":[0],"type":"SCALAR"},{"bufferView":8,"componentType":5126,"count":120,"max":[0.0625,0.375,0.0625],"min":[-0.0625,0,-0.0625],"type":"VEC3"},{"bufferView":9,"componentType":5126,"count":120,"max":[1,1,1],"min":[-1,-1,-1],"type":"VEC3"},{"bufferView":10,"componentType":5126,"count":120,"max":[0.390625,0.390625],"min":[0.3052433729171753,0.125],"type":"VEC2"},{"bufferView":11,"componentType":5123,"count":144,"max":[119],"min":[0],"type":"SCALAR"},{"bufferView":12,"componentType":5126,"count":120,"max":[0.0625,0.375,0.0625],"min":[-0.0625,0,-0.0625],"type":"VEC3"},{"bufferView":13,"componentType":5126,"count":120,"max":[1,1,1],"min":[-1,-1,-1],"type":"VEC3"},{"bufferView":14,"componentType":5126,"count":120,"max":[0.390625,0.3359375],"min":[0.3052433729171753,0.125],"type":"VEC2"},{"bufferView":15,"componentType":5123,"count":144,"max":[119],"min":[0],"type":"SCALAR"},{"bufferView":16,"componentType":5126,"count":120,"max":[0.0625,0.375,0.0625],"min":[-0.0625,0,-0.0625],"type":"VEC3"},{"bufferView":17,"componentType":5126,"count":120,"max":[1,1,1],"min":[-1,-1,-1],"type":"VEC3"},{"bufferView":18,"componentType":5126,"count":120,"max":[0.390625,0.3359375],"min":[0.3286808729171753,0.125],"type":"VEC2"},{"bufferView":19,"componentType":5123,"count":144,"max":[119],"min":[0],"type":"SCALAR"}],"materials":[{"pbrMetallicRoughness":{"metallicFactor":0,"roughnessFactor":1,"baseColorTexture":{"index":0}},"alphaMode":"MASK","alphaCutoff":0.05,"doubleSided":true}],"textures":[{"sampler":0,"source":0,"name":"GenericTableTexture"}],"samplers":[{"magFilter":9728,"minFilter":9728,"wrapS":33071,"wrapT":33071}],"images":[{"mimeType":"image/png","uri":"data:image/png;base64,"}],"meshes":[{"primitives":[{"mode":4,"attributes":{"POSITION":0,"NORMAL":1,"TEXCOORD_0":2},"indices":3,"material":0}]},{"primitives":[{"mode":4,"attributes":{"POSITION":4,"NORMAL":5,"TEXCOORD_0":6},"indices":7,"material":0}]},{"primitives":[{"mode":4,"attributes":{"POSITION":8,"NORMAL":9,"TEXCOORD_0":10},"indices":11,"material":0}]},{"primitives":[{"mode":4,"attributes":{"POSITION":12,"NORMAL":13,"TEXCOORD_0":14},"indices":15,"material":0}]},{"primitives":[{"mode":4,"attributes":{"POSITION":16,"NORMAL":17,"TEXCOORD_0":18},"indices":19,"material":0}]}]}