{"asset":{"version":"2.0","generator":"Blockbench 5.1.3 glTF exporter"},"scenes":[{"nodes":[0,1,2,3,4],"name":"blockbench_export"}],"scene":0,"nodes":[{"translation":[0,0.375,0],"name":"Couch","mesh":0},{"translation":[1.375,0,-0.4375],"name":"cylinder","mesh":1},{"translation":[-1.35,0,-0.4375],"name":"cylinder","mesh":2},{"translation":[1.2999999999999992,0,0.6875],"name":"cylinder","mesh":3},{"translation":[-1.3062500000000006,0,0.6875],"name":"cylinder","mesh":4}],"bufferViews":[{"buffer":0,"byteOffset":0,"byteLength":1440,"target":34962,"byteStride":12},{"buffer":0,"byteOffset":1440,"byteLength":1440,"target":34962,"byteStride":12},{"buffer":0,"byteOffset":2880,"byteLength":960,"target":34962,"byteStride":8},{"buffer":0,"byteOffset":3840,"byteLength":360,"target":34963},{"buffer":0,"byteOffset":4200,"byteLength":1440,"target":34962,"byteStride":12},{"buffer":0,"byteOffset":5640,"byteLength":1440,"target":34962,"byteStride":12},{"buffer":0,"byteOffset":7080,"byteLength":960,"target":34962,"byteStride":8},{"buffer":0,"byteOffset":8040,"byteLength":288,"target":34963},{"buffer":0,"byteOffset":8328,"byteLength":1440,"target":34962,"byteStride":12},{"buffer":0,"byteOffset":9768,"byteLength":1440,"target":34962,"byteStride":12},{"buffer":0,"byteOffset":11208,"byteLength":960,"target":34962,"byteStride":8},{"buffer":0,"byteOffset":12168,"byteLength":288,"target":34963},{"buffer":0,"byteOffset":12456,"byteLength":1440,"target":34962,"byteStride":12},{"buffer":0,"byteOffset":13896,"byteLength":1440,"target":34962,"byteStride":12},{"buffer":0,"byteOffset":15336,"byteLength":960,"target":34962,"byteStride":8},{"buffer":0,"byteOffset":16296,"byteLength":288,"target":34963},{"buffer":0,"byteOffset":16584,"byteLength":1440,"target":34962,"byteStride":12},{"buffer":0,"byteOffset":18024,"byteLength":1440,"target":34962,"byteStride":12},{"buffer":0,"byteOffset":19464,"byteLength":960,"target":34962,"byteStride":8},{"buffer":0,"byteOffset":20424,"byteLength":288,"target":34963}],"buffers":[{"byteLength":20712,"uri":"data:application/octet-stream;base64,"}],"accessors":[{"bufferView":0,"componentType":5126,"count":120,"max":[1.443750023841858,0.9937499761581421,0.7562500238418579],"min":[-1.443750023841858,0,-0.5],"type":"VEC3"},{"bufferView":1,"componentType":5126,"count":120,"max":[1,1,1],"min":[-1,-1,-1],"type":"VEC3"},{"bufferView":2,"componentType":5126,"count":120,"max":[0.712695300579071,0.5625],"min":[0,0],"type":"VEC2"},{"bufferView":3,"componentType":5123,"count":180,"max":[119],"min":[0],"type":"SCALAR"},{"bufferView":4,"componentType":5126,"count":120,"max":[0.0625,0.375,0.0625],"min":[-0.0625,0,-0.0625],"type":"VEC3"},{"bufferView":5,"componentType":5126,"count":120,"max":[1,1,1],"min":[-1,-1,-1],"type":"VEC3"},{"bufferView":6,"componentType":5126,"count":120,"max":[0.390625,0.484375],"min":[0.2583695352077484,0.140625],"type":"VEC2"},{"bufferView":7,"componentType":5123,"count":144,"max":[119],"min":[0],"type":"SCALAR"},{"bufferView":8,"componentType":5126,"count":120,"max":[0.0625,0.375,0.0625],"min":[-0.0625,0,-0.0625],"type":"VEC3"},{"bufferView":9,"componentType":5126,"count":120,"max":[1,1,1],"min":[-1,-1,-1],"type":"VEC3"},{"bufferView":10,"componentType":5126,"count":120,"max":[0.4609375,0.5390625],"min":[0.047432031482458115,0.140625],"type":"VEC2"},{"bufferView":11,"componentType":5123,"count":144,"max":[119],"min":[0],"type":"SCALAR"},{"bufferView":12,"componentType":5126,"count":120,"max":[0.0625,0.375,0.0625],"min":[-0.0625,0,-0.0625],"type":"VEC3"},{"bufferView":13,"componentType":5126,"count":120,"max":[1,1,1],"min":[-1,-1,-1],"type":"VEC3"},{"bufferView":14,"componentType":5126,"count":120,"max":[0.4349898397922516,0.484375],"min":[0.3521195352077484,0.140625],"type":"VEC2"},{"bufferView":15,"componentType":5123,"count":144,"max":[119],"min":[0],"type":"SCALAR"},{"bufferView":16,"componentType":5126,"count":120,"max":[0.0625,0.375,0.0625],"min":[-0.0625,0,-0.0625],"type":"VEC3"},{"bufferView":17,"componentType":5126,"count":120,"max":[1,1,1],"min":[-1,-1,-1],"type":"VEC3"},{"bufferView":18,"componentType":5126,"count":120,"max":[0.4818648397922516,0.53125],"min":[0.000557031249627471,0.140625],"type":"VEC2"},{"bufferView":19,"componentType":5123,"count":144,"max":[119],"min":[0],"type":"SCALAR"}],"materials":[{"pbrMetallicRoughness":{"metallicFactor":0,"roughnessFactor":1,"baseColorTexture":{"index":0}},"alphaMode":"MASK","alphaCutoff":0.05,"doubleSided":true}],"textures":[{"sampler":0,"source":0,"name":"CouchAsset"}],"samplers":[{"magFilter":9728,"minFilter":9728,"wrapS":33071,"wrapT":33071}],"images":[{"mimeType":"image/png","uri":"data:image/png;base64,"}],"meshes":[{"primitives":[{"mode":4,"attributes":{"POSITION":0,"NORMAL":1,"TEXCOORD_0":2},"indices":3,"material":0}]},{"primitives":[{"mode":4,"attributes":{"POSITION":4,"NORMAL":5,"TEXCOORD_0":6},"indices":7,"material":0}]},{"primitives":[{"mode":4,"attributes":{"POSITION":8,"NORMAL":9,"TEXCOORD_0":10},"indices":11,"material":0}]},{"primitives":[{"mode":4,"attributes":{"POSITION":12,"NORMAL":13,"TEXCOORD_0":14},"indices":15,"material":0}]},{"primitives":[{"mode":4,"attributes":{"POSITION":16,"NORMAL":17,"TEXCOORD_0":18},"indices":19,"material":0}]}]}