{"asset":{"version":"2.0","generator":"Blockbench 5.1.3 glTF exporter"},"scenes":[{"nodes":[0,1,2,3,4,5,10,13,14],"name":"blockbench_export"}],"scene":0,"nodes":[{"translation":[0,0.9375,0.125],"name":"GunBody","mesh":0},{"translation":[0,0.875,0.0375],"name":"GunBody","mesh":1},{"translation":[0,0.98125,0.20625],"name":"GunBody","mesh":2},{"translation":[-0.0375,0.9375,0.125],"name":"GunBody","mesh":3},{"translation":[0.0375,0.9375,0.125],"name":"GunBody","mesh":4},{"rotation":[-0.1521233861899167,0,0,0.9883615104677607],"translation":[0,0.86875,0.3],"name":"GunBodyHandle","mesh":5},{"translation":[0,-0.034375000000000044,-0.2625],"name":"cylinder","mesh":6},{"translation":[0,0,-0.15],"name":"cylinder","mesh":7},{"translation":[0,0,-0.075],"name":"cylinder","mesh":8},{"name":"cylinder","mesh":9},{"translation":[0,0.878125,0.15625],"name":"PokerChips","children":[6,7,8,9]},{"rotation":[-0.6123724356957946,0.6123724356957945,-0.3535533905932737,0.35355339059327373],"translation":[-0.0375,0,0],"name":"mesh","mesh":10},{"rotation":[-0.3668280887435441,0.36682808874354417,-0.6045139810697172,0.6045139810697173],"name":"mesh","mesh":11},{"translation":[0.01875,1.09375,-0.01875],"name":"Claws","children":[11,12]},{"rotation":[-0.7071067811865475,0,0,0.7071067811865476],"translation":[0,1.09375,0.00625],"name":"Muzzle","mesh":12}],"bufferViews":[{"buffer":0,"byteOffset":0,"byteLength":288,"target":34962,"byteStride":12},{"buffer":0,"byteOffset":288,"byteLength":288,"target":34962,"byteStride":12},{"buffer":0,"byteOffset":576,"byteLength":192,"target":34962,"byteStride":8},{"buffer":0,"byteOffset":768,"byteLength":72,"target":34963},{"buffer":0,"byteOffset":840,"byteLength":288,"target":34962,"byteStride":12},{"buffer":0,"byteOffset":1128,"byteLength":288,"target":34962,"byteStride":12},{"buffer":0,"byteOffset":1416,"byteLength":192,"target":34962,"byteStride":8},{"buffer":0,"byteOffset":1608,"byteLength":72,"target":34963},{"buffer":0,"byteOffset":1680,"byteLength":288,"target":34962,"byteStride":12},{"buffer":0,"byteOffset":1968,"byteLength":288,"target":34962,"byteStride":12},{"buffer":0,"byteOffset":2256,"byteLength":192,"target":34962,"byteStride":8},{"buffer":0,"byteOffset":2448,"byteLength":72,"target":34963},{"buffer":0,"byteOffset":2520,"byteLength":288,"target":34962,"byteStride":12},{"buffer":0,"byteOffset":2808,"byteLength":288,"target":34962,"byteStride":12},{"buffer":0,"byteOffset":3096,"byteLength":192,"target":34962,"byteStride":8},{"buffer":0,"byteOffset":3288,"byteLength":72,"target":34963},{"buffer":0,"byteOffset":3360,"byteLength":288,"target":34962,"byteStride":12},{"buffer":0,"byteOffset":3648,"byteLength":288,"target":34962,"byteStride":12},{"buffer":0,"byteOffset":3936,"byteLength":192,"target":34962,"byteStride":8},{"buffer":0,"byteOffset":4128,"byteLength":72,"target":34963},{"buffer":0,"byteOffset":4200,"byteLength":288,"target":34962,"byteStride":12},{"buffer":0,"byteOffset":4488,"byteLength":288,"target":34962,"byteStride":12},{"buffer":0,"byteOffset":4776,"byteLength":192,"target":34962,"byteStride":8},{"buffer":0,"byteOffset":4968,"byteLength":72,"target":34963},{"buffer":0,"byteOffset":5040,"byteLength":1440,"target":34962,"byteStride":12},{"buffer":0,"byteOffset":6480,"byteLength":1440,"target":34962,"byteStride":12},{"buffer":0,"byteOffset":7920,"byteLength":960,"target":34962,"byteStride":8},{"buffer":0,"byteOffset":8880,"byteLength":288,"target":34963},{"buffer":0,"byteOffset":9168,"byteLength":1440,"target":34962,"byteStride":12},{"buffer":0,"byteOffset":10608,"byteLength":1440,"target":34962,"byteStride":12},{"buffer":0,"byteOffset":12048,"byteLength":960,"target":34962,"byteStride":8},{"buffer":0,"byteOffset":13008,"byteLength":288,"target":34963},{"buffer":0,"byteOffset":13296,"byteLength":1440,"target":34962,"byteStride":12},{"buffer":0,"byteOffset":14736,"byteLength":1440,"target":34962,"byteStride":12},{"buffer":0,"byteOffset":16176,"byteLength":960,"target":34962,"byteStride":8},{"buffer":0,"byteOffset":17136,"byteLength":288,"target":34963},{"buffer":0,"byteOffset":17424,"byteLength":1440,"target":34962,"byteStride":12},{"buffer":0,"byteOffset":18864,"byteLength":1440,"target":34962,"byteStride":12},{"buffer":0,"byteOffset":20304,"byteLength":960,"target":34962,"byteStride":8},{"buffer":0,"byteOffset":21264,"byteLength":288,"target":34963},{"buffer":0,"byteOffset":21552,"byteLength":288,"target":34962,"byteStride":12},{"buffer":0,"byteOffset":21840,"byteLength":288,"target":34962,"byteStride":12},{"buffer":0,"byteOffset":22128,"byteLength":192,"target":34962,"byteStride":8},{"buffer":0,"byteOffset":22320,"byteLength":72,"target":34963},{"buffer":0,"byteOffset":22392,"byteLength":288,"target":34962,"byteStride":12},{"buffer":0,"byteOffset":22680,"byteLength":288,"target":34962,"byteStride":12},{"buffer":0,"byteOffset":22968,"byteLength":192,"target":34962,"byteStride":8},{"buffer":0,"byteOffset":23160,"byteLength":72,"target":34963},{"buffer":0,"byteOffset":23232,"byteLength":840,"target":34962,"byteStride":12},{"buffer":0,"byteOffset":24072,"byteLength":840,"target":34962,"byteStride":12},{"buffer":0,"byteOffset":24912,"byteLength":560,"target":34962,"byteStride":8},{"buffer":0,"byteOffset":25472,"byteLength":168,"target":34963}],"buffers":[{"byteLength":25640,"uri":"data:application/octet-stream;base64,"}],"accessors":[{"bufferView":0,"componentType":5126,"count":24,"max":[0.03125,0.1875,0.16249999403953552],"min":[-0.03125,0.125,-0.16249999403953552],"type":"VEC3"},{"bufferView":1,"componentType":5126,"count":24,"max":[1,1,1],"min":[-1,-1,-1],"type":"VEC3"},{"bufferView":2,"componentType":5126,"count":24,"max":[0.34375,0.34375],"min":[0,0],"type":"VEC2"},{"bufferView":3,"componentType":5123,"count":36,"max":[23],"min":[0],"type":"SCALAR"},{"bufferView":4,"componentType":5126,"count":24,"max":[0.01875000074505806,0.1875,0.02500000037252903],"min":[-0.01875000074505806,0.125,-0.02500000037252903],"type":"VEC3"},{"bufferView":5,"componentType":5126,"count":24,"max":[1,1,1],"min":[-1,-1,-1],"type":"VEC3"},{"bufferView":6,"componentType":5126,"count":24,"max":[0.5,0.5625],"min":[0.25,0],"type":"VEC2"},{"bufferView":7,"componentType":5123,"count":36,"max":[23],"min":[0],"type":"SCALAR"},{"bufferView":8,"componentType":5126,"count":24,"max":[0.02500000037252903,0.16875000298023224,0.0062500000931322575],"min":[-0.02500000037252903,0.14374999701976776,-0.0062500000931322575],"type":"VEC3"},{"bufferView":9,"componentType":5126,"count":24,"max":[1,1,1],"min":[-1,-1,-1],"type":"VEC3"},{"bufferView":10,"componentType":5126,"count":24,"max":[0.640625,0.640625],"min":[0.5,0],"type":"VEC2"},{"bufferView":11,"componentType":5123,"count":36,"max":[23],"min":[0],"type":"SCALAR"},{"bufferView":12,"componentType":5126,"count":24,"max":[0.0062500000931322575,0.16875000298023224,0.15625],"min":[-0.0062500000931322575,0.14374999701976776,-0.15625],"type":"VEC3"},{"bufferView":13,"componentType":5126,"count":24,"max":[1,1,1],"min":[-1,-1,-1],"type":"VEC3"},{"bufferView":14,"componentType":5126,"count":24,"max":[0.640625,0.34375],"min":[0.125,0],"type":"VEC2"},{"bufferView":15,"componentType":5123,"count":36,"max":[23],"min":[0],"type":"SCALAR"},{"bufferView":16,"componentType":5126,"count":24,"max":[0.0062500000931322575,0.16875000298023224,0.15625],"min":[-0.0062500000931322575,0.14374999701976776,-0.15625],"type":"VEC3"},{"bufferView":17,"componentType":5126,"count":24,"max":[1,1,1],"min":[-1,-1,-1],"type":"VEC3"},{"bufferView":18,"componentType":5126,"count":24,"max":[0.640625,0.46875],"min":[0,0.0625],"type":"VEC2"},{"bufferView":19,"componentType":5123,"count":36,"max":[23],"min":[0],"type":"SCALAR"},{"bufferView":20,"componentType":5126,"count":24,"max":[0.02187499962747097,0.21875,0.02187499962747097],"min":[-0.02187499962747097,0.09375,-0.02187499962747097],"type":"VEC3"},{"bufferView":21,"componentType":5126,"count":24,"max":[1,1,1],"min":[-1,-1,-1],"type":"VEC3"},{"bufferView":22,"componentType":5126,"count":24,"max":[0.609375,0.609375],"min":[0,0],"type":"VEC2"},{"bufferView":23,"componentType":5123,"count":36,"max":[23],"min":[0],"type":"SCALAR"},{"bufferView":24,"componentType":5126,"count":120,"max":[0.03750000149011612,0.25312501192092896,0.03750000149011612],"min":[-0.03750000149011612,0.24687500298023224,-0.03750000149011612],"type":"VEC3"},{"bufferView":25,"componentType":5126,"count":120,"max":[0.9659296274185181,1,0.9659296274185181],"min":[-0.9659296274185181,-1,-0.9659296274185181],"type":"VEC3"},{"bufferView":26,"componentType":5126,"count":120,"max":[0.65625,0.659375011920929],"min":[0.0625,0.2593749761581421],"type":"VEC2"},{"bufferView":27,"componentType":5123,"count":144,"max":[119],"min":[0],"type":"SCALAR"},{"bufferView":28,"componentType":5126,"count":120,"max":[0.03750000149011612,0.25312501192092896,0.03750000149011612],"min":[-0.03750000149011612,0.24687500298023224,-0.03750000149011612],"type":"VEC3"},{"bufferView":29,"componentType":5126,"count":120,"max":[0.9659296274185181,1,0.9659296274185181],"min":[-0.9659296274185181,-1,-0.9659296274185181],"type":"VEC3"},{"bufferView":30,"componentType":5126,"count":120,"max":[0.65625,0.690625011920929],"min":[0.0625,0.00937497615814209],"type":"VEC2"},{"bufferView":31,"componentType":5123,"count":144,"max":[119],"min":[0],"type":"SCALAR"},{"bufferView":32,"componentType":5126,"count":120,"max":[0.03750000149011612,0.25312501192092896,0.03750000149011612],"min":[-0.03750000149011612,0.24687500298023224,-0.03750000149011612],"type":"VEC3"},{"bufferView":33,"componentType":5126,"count":120,"max":[0.9659296274185181,1,0.9659296274185181],"min":[-0.9659296274185181,-1,-0.9659296274185181],"type":"VEC3"},{"bufferView":34,"componentType":5126,"count":120,"max":[0.7069125175476074,0.690625011920929],"min":[0.0021312499884516,0],"type":"VEC2"},{"bufferView":35,"componentType":5123,"count":144,"max":[119],"min":[0],"type":"SCALAR"},{"bufferView":36,"componentType":5126,"count":120,"max":[0.03750000149011612,0.25312501192092896,0.03750000149011612],"min":[-0.03750000149011612,0.24687500298023224,-0.03750000149011612],"type":"VEC3"},{"bufferView":37,"componentType":5126,"count":120,"max":[0.9659296274185181,1,0.9659296274185181],"min":[-0.9659296274185181,-1,-0.9659296274185181],"type":"VEC3"},{"bufferView":38,"componentType":5126,"count":120,"max":[0.7069125175476074,0.690625011920929],"min":[0.1875,0.0625],"type":"VEC2"},{"bufferView":39,"componentType":5123,"count":144,"max":[119],"min":[0],"type":"SCALAR"},{"bufferView":40,"componentType":5126,"count":24,"max":[0.0062500000931322575,0.11249999701976776,0.012500000186264515],"min":[-0.0062500000931322575,0.012500000186264515,-0.012500000186264515],"type":"VEC3"},{"bufferView":41,"componentType":5126,"count":24,"max":[1,1,1],"min":[-1,-1,-1],"type":"VEC3"},{"bufferView":42,"componentType":5126,"count":24,"max":[0.578125,0.578125],"min":[0.0625,0.0625],"type":"VEC2"},{"bufferView":43,"componentType":5123,"count":36,"max":[23],"min":[0],"type":"SCALAR"},{"bufferView":44,"componentType":5126,"count":24,"max":[0.0062500000931322575,0.11249999701976776,0.012500000186264515],"min":[-0.0062500000931322575,0.012500000186264515,-0.012500000186264515],"type":"VEC3"},{"bufferView":45,"componentType":5126,"count":24,"max":[1,1,1],"min":[-1,-1,-1],"type":"VEC3"},{"bufferView":46,"componentType":5126,"count":24,"max":[0.578125,0.578125],"min":[0,0.15625],"type":"VEC2"},{"bufferView":47,"componentType":5123,"count":36,"max":[23],"min":[0],"type":"SCALAR"},{"bufferView":48,"componentType":5126,"count":70,"max":[0.015625,0.08124999701976776,0.012190000154078007],"min":[-0.015625,0.04374999925494194,-0.019060000777244568],"type":"VEC3"},{"bufferView":49,"componentType":5126,"count":70,"max":[0.9761209487915039,1,1],"min":[-0.9761209487915039,-1,-0.89658123254776],"type":"VEC3"},{"bufferView":50,"componentType":5126,"count":70,"max":[0.640625,0.640625],"min":[0.0625,0.0625],"type":"VEC2"},{"bufferView":51,"componentType":5123,"count":84,"max":[69],"min":[0],"type":"SCALAR"}],"materials":[{"pbrMetallicRoughness":{"metallicFactor":0,"roughnessFactor":1,"baseColorTexture":{"index":0}},"alphaMode":"MASK","alphaCutoff":0.05,"doubleSided":true}],"textures":[{"sampler":0,"source":0,"name":"ChipGunTexture"}],"samplers":[{"magFilter":9728,"minFilter":9728,"wrapS":33071,"wrapT":33071}],"images":[{"mimeType":"image/png","uri":"data:image/png;base64,"}],"meshes":[{"primitives":[{"mode":4,"attributes":{"POSITION":0,"NORMAL":1,"TEXCOORD_0":2},"indices":3,"material":0}]},{"primitives":[{"mode":4,"attributes":{"POSITION":4,"NORMAL":5,"TEXCOORD_0":6},"indices":7,"material":0}]},{"primitives":[{"mode":4,"attributes":{"POSITION":8,"NORMAL":9,"TEXCOORD_0":10},"indices":11,"material":0}]},{"primitives":[{"mode":4,"attributes":{"POSITION":12,"NORMAL":13,"TEXCOORD_0":14},"indices":15,"material":0}]},{"primitives":[{"mode":4,"attributes":{"POSITION":16,"NORMAL":17,"TEXCOORD_0":18},"indices":19,"material":0}]},{"primitives":[{"mode":4,"attributes":{"POSITION":20,"NORMAL":21,"TEXCOORD_0":22},"indices":23,"material":0}]},{"primitives":[{"mode":4,"attributes":{"POSITION":24,"NORMAL":25,"TEXCOORD_0":26},"indices":27,"material":0}]},{"primitives":[{"mode":4,"attributes":{"POSITION":28,"NORMAL":29,"TEXCOORD_0":30},"indices":31,"material":0}]},{"primitives":[{"mode":4,"attributes":{"POSITION":32,"NORMAL":33,"TEXCOORD_0":34},"indices":35,"material":0}]},{"primitives":[{"mode":4,"attributes":{"POSITION":36,"NORMAL":37,"TEXCOORD_0":38},"indices":39,"material":0}]},{"primitives":[{"mode":4,"attributes":{"POSITION":40,"NORMAL":41,"TEXCOORD_0":42},"indices":43,"material":0}]},{"primitives":[{"mode":4,"attributes":{"POSITION":44,"NORMAL":45,"TEXCOORD_0":46},"indices":47,"material":0}]},{"primitives":[{"mode":4,"attributes":{"POSITION":48,"NORMAL":49,"TEXCOORD_0":50},"indices":51,"material":0}]}]}