{"asset":{"version":"2.0","generator":"Blockbench 5.1.3 glTF exporter"},"scenes":[{"nodes":[0,1,2,3],"name":"blockbench_export"}],"scene":0,"nodes":[{"name":"RouletteWheel","mesh":0},{"translation":[0,0.10000000000000003,0],"name":"RouletteSpinBase","mesh":1},{"rotation":[0,0,-0.7071067811865475,0.7071067811865476],"translation":[-0.125,0.275,0],"name":"R-Arm","mesh":2},{"rotation":[0.5000000000000026,-0.4999999999999974,-0.5000000000000026,0.4999999999999975],"translation":[0,0.275,-0.125],"name":"R-Arm2","mesh":3}],"bufferViews":[{"buffer":0,"byteOffset":0,"byteLength":4680,"target":34962,"byteStride":12},{"buffer":0,"byteOffset":4680,"byteLength":4680,"target":34962,"byteStride":12},{"buffer":0,"byteOffset":9360,"byteLength":3120,"target":34962,"byteStride":8},{"buffer":0,"byteOffset":12480,"byteLength":1080,"target":34963},{"buffer":0,"byteOffset":13560,"byteLength":1440,"target":34962,"byteStride":12},{"buffer":0,"byteOffset":15000,"byteLength":1440,"target":34962,"byteStride":12},{"buffer":0,"byteOffset":16440,"byteLength":960,"target":34962,"byteStride":8},{"buffer":0,"byteOffset":17400,"byteLength":288,"target":34963},{"buffer":0,"byteOffset":17688,"byteLength":1440,"target":34962,"byteStride":12},{"buffer":0,"byteOffset":19128,"byteLength":1440,"target":34962,"byteStride":12},{"buffer":0,"byteOffset":20568,"byteLength":960,"target":34962,"byteStride":8},{"buffer":0,"byteOffset":21528,"byteLength":288,"target":34963},{"buffer":0,"byteOffset":21816,"byteLength":1440,"target":34962,"byteStride":12},{"buffer":0,"byteOffset":23256,"byteLength":1440,"target":34962,"byteStride":12},{"buffer":0,"byteOffset":24696,"byteLength":960,"target":34962,"byteStride":8},{"buffer":0,"byteOffset":25656,"byteLength":288,"target":34963}],"buffers":[{"byteLength":25944,"uri":"data:application/octet-stream;base64,"}],"accessors":[{"bufferView":0,"componentType":5126,"count":390,"max":[0.7611664533615112,0.21875,0.7486342191696167],"min":[-0.7611664533615112,0,-0.7653591632843018],"type":"VEC3"},{"bufferView":1,"componentType":5126,"count":390,"max":[0.9945219159126282,1,1],"min":[-0.9945219159126282,-1,-1],"type":"VEC3"},{"bufferView":2,"componentType":5126,"count":390,"max":[0.6775968670845032,0.9494927525520325],"min":[0,0],"type":"VEC2"},{"bufferView":3,"componentType":5123,"count":540,"max":[389],"min":[0],"type":"SCALAR"},{"bufferView":4,"componentType":5126,"count":120,"max":[0.05000000074505806,0.2750000059604645,0.05000000074505806],"min":[-0.05000000074505806,0,-0.05000000074505806],"type":"VEC3"},{"bufferView":5,"componentType":5126,"count":120,"max":[1,0.8944271802902222,1],"min":[-1,-1,-1],"type":"VEC3"},{"bufferView":6,"componentType":5126,"count":120,"max":[0.30818936228752136,0.625],"min":[0.0006921875174157321,0.046875],"type":"VEC2"},{"bufferView":7,"componentType":5123,"count":144,"max":[119],"min":[0],"type":"SCALAR"},{"bufferView":8,"componentType":5126,"count":120,"max":[0.05000000074505806,0.2750000059604645,0.05000000074505806],"min":[-0.05000000074505806,-0.01875000074505806,-0.05000000074505806],"type":"VEC3"},{"bufferView":9,"componentType":5126,"count":120,"max":[1,0.8944271802902222,1],"min":[-1,-0.936329185962677,-1],"type":"VEC3"},{"bufferView":10,"componentType":5126,"count":120,"max":[0.6614171862602234,0.3125],"min":[0.00006298309017438442,0],"type":"VEC2"},{"bufferView":11,"componentType":5123,"count":144,"max":[119],"min":[0],"type":"SCALAR"},{"bufferView":12,"componentType":5126,"count":120,"max":[0.05000000074505806,0.2750000059604645,0.05000000074505806],"min":[-0.05000000074505806,-0.01875000074505806,-0.05000000074505806],"type":"VEC3"},{"bufferView":13,"componentType":5126,"count":120,"max":[1,0.8944271802902222,1],"min":[-1,-0.936329185962677,-1],"type":"VEC3"},{"bufferView":14,"componentType":5126,"count":120,"max":[0.6926671862602234,0.703125],"min":[0.1719379872083664,0],"type":"VEC2"},{"bufferView":15,"componentType":5123,"count":144,"max":[119],"min":[0],"type":"SCALAR"}],"materials":[{"pbrMetallicRoughness":{"metallicFactor":0,"roughnessFactor":1,"baseColorTexture":{"index":0}},"alphaMode":"MASK","alphaCutoff":0.05,"doubleSided":true}],"textures":[{"sampler":0,"source":0,"name":"RouletteWheel"}],"samplers":[{"magFilter":9728,"minFilter":9728,"wrapS":33071,"wrapT":33071}],"images":[{"mimeType":"image/png","uri":"data:image/png;base64,"}],"meshes":[{"primitives":[{"mode":4,"attributes":{"POSITION":0,"NORMAL":1,"TEXCOORD_0":2},"indices":3,"material":0}]},{"primitives":[{"mode":4,"attributes":{"POSITION":4,"NORMAL":5,"TEXCOORD_0":6},"indices":7,"material":0}]},{"primitives":[{"mode":4,"attributes":{"POSITION":8,"NORMAL":9,"TEXCOORD_0":10},"indices":11,"material":0}]},{"primitives":[{"mode":4,"attributes":{"POSITION":12,"NORMAL":13,"TEXCOORD_0":14},"indices":15,"material":0}]}]}