{"asset":{"version":"2.0","generator":"Blockbench 5.1.3 glTF exporter"},"scenes":[{"nodes":[0,1,2,3,4,5,10],"name":"blockbench_export"}],"scene":0,"nodes":[{"translation":[0,0.9375,0.125],"name":"GunBody","mesh":0},{"translation":[0,1,-0.21875],"name":"GunStock","mesh":1},{"translation":[0,1,0.40625],"name":"GunStockBackHandle","mesh":2},{"rotation":[0.573576436351046,0,0,0.8191520442889918],"translation":[0,0.95625,-0.28125],"name":"GunStockHandle","mesh":3},{"rotation":[-0.1521233861899167,0,0,0.9883615104677607],"translation":[0,0.8125,0.26875],"name":"GunBodyHandle","mesh":4},{"rotation":[-0.7071067811865475,0,0,0.7071067811865476],"translation":[0,1.1125,0],"name":"GunTube","mesh":5},{"translation":[-0.09375,-0.07187500000000002,0],"name":"RoulettewheelBase","mesh":6},{"translation":[-0.09375,-0.09687500000000004,0],"name":"RWCenterPole","mesh":7},{"rotation":[0.5,0.5,0.4999999999999999,0.5000000000000001],"translation":[-0.09375,0,0.03125000000000001],"name":"RWSidePole","mesh":8},{"rotation":[0,0,0.7071067811865475,0.7071067811865476],"name":"RWSidePole2","mesh":9},{"rotation":[-0.7071067811865475,0,0,0.7071067811865476],"translation":[0.09375,0.915625,-0.06875],"name":"RouletteWheel","children":[6,7,8,9]}],"bufferViews":[{"buffer":0,"byteOffset":0,"byteLength":288,"target":34962,"byteStride":12},{"buffer":0,"byteOffset":288,"byteLength":288,"target":34962,"byteStride":12},{"buffer":0,"byteOffset":576,"byteLength":192,"target":34962,"byteStride":8},{"buffer":0,"byteOffset":768,"byteLength":72,"target":34963},{"buffer":0,"byteOffset":840,"byteLength":288,"target":34962,"byteStride":12},{"buffer":0,"byteOffset":1128,"byteLength":288,"target":34962,"byteStride":12},{"buffer":0,"byteOffset":1416,"byteLength":192,"target":34962,"byteStride":8},{"buffer":0,"byteOffset":1608,"byteLength":72,"target":34963},{"buffer":0,"byteOffset":1680,"byteLength":864,"target":34962,"byteStride":12},{"buffer":0,"byteOffset":2544,"byteLength":864,"target":34962,"byteStride":12},{"buffer":0,"byteOffset":3408,"byteLength":576,"target":34962,"byteStride":8},{"buffer":0,"byteOffset":3984,"byteLength":216,"target":34963},{"buffer":0,"byteOffset":4200,"byteLength":288,"target":34962,"byteStride":12},{"buffer":0,"byteOffset":4488,"byteLength":288,"target":34962,"byteStride":12},{"buffer":0,"byteOffset":4776,"byteLength":192,"target":34962,"byteStride":8},{"buffer":0,"byteOffset":4968,"byteLength":72,"target":34963},{"buffer":0,"byteOffset":5040,"byteLength":288,"target":34962,"byteStride":12},{"buffer":0,"byteOffset":5328,"byteLength":288,"target":34962,"byteStride":12},{"buffer":0,"byteOffset":5616,"byteLength":192,"target":34962,"byteStride":8},{"buffer":0,"byteOffset":5808,"byteLength":72,"target":34963},{"buffer":0,"byteOffset":5880,"byteLength":720,"target":34962,"byteStride":12},{"buffer":0,"byteOffset":6600,"byteLength":720,"target":34962,"byteStride":12},{"buffer":0,"byteOffset":7320,"byteLength":480,"target":34962,"byteStride":8},{"buffer":0,"byteOffset":7800,"byteLength":144,"target":34963},{"buffer":0,"byteOffset":7944,"byteLength":2112,"target":34962,"byteStride":12},{"buffer":0,"byteOffset":10056,"byteLength":2112,"target":34962,"byteStride":12},{"buffer":0,"byteOffset":12168,"byteLength":1408,"target":34962,"byteStride":8},{"buffer":0,"byteOffset":13576,"byteLength":480,"target":34963},{"buffer":0,"byteOffset":14056,"byteLength":960,"target":34962,"byteStride":12},{"buffer":0,"byteOffset":15016,"byteLength":960,"target":34962,"byteStride":12},{"buffer":0,"byteOffset":15976,"byteLength":640,"target":34962,"byteStride":8},{"buffer":0,"byteOffset":16616,"byteLength":192,"target":34963},{"buffer":0,"byteOffset":16808,"byteLength":960,"target":34962,"byteStride":12},{"buffer":0,"byteOffset":17768,"byteLength":960,"target":34962,"byteStride":12},{"buffer":0,"byteOffset":18728,"byteLength":640,"target":34962,"byteStride":8},{"buffer":0,"byteOffset":19368,"byteLength":192,"target":34963},{"buffer":0,"byteOffset":19560,"byteLength":960,"target":34962,"byteStride":12},{"buffer":0,"byteOffset":20520,"byteLength":960,"target":34962,"byteStride":12},{"buffer":0,"byteOffset":21480,"byteLength":640,"target":34962,"byteStride":8},{"buffer":0,"byteOffset":22120,"byteLength":192,"target":34963}],"buffers":[{"byteLength":22312,"uri":"data:application/octet-stream;base64,"}],"accessors":[{"bufferView":0,"componentType":5126,"count":24,"max":[0.0625,0.21875,0.25],"min":[-0.0625,0.09375,-0.25],"type":"VEC3"},{"bufferView":1,"componentType":5126,"count":24,"max":[1,1,1],"min":[-1,-1,-1],"type":"VEC3"},{"bufferView":2,"componentType":5126,"count":24,"max":[0.65625,0.5625],"min":[0,0],"type":"VEC2"},{"bufferView":3,"componentType":5123,"count":36,"max":[23],"min":[0],"type":"SCALAR"},{"bufferView":4,"componentType":5126,"count":24,"max":[0.046875,0.0625,0.09375],"min":[-0.046875,0,-0.09375],"type":"VEC3"},{"bufferView":5,"componentType":5126,"count":24,"max":[1,1,1],"min":[-1,-1,-1],"type":"VEC3"},{"bufferView":6,"componentType":5126,"count":24,"max":[0.734375,0.6875],"min":[0.1875,0.09375],"type":"VEC2"},{"bufferView":7,"componentType":5123,"count":36,"max":[23],"min":[0],"type":"SCALAR"},{"bufferView":8,"componentType":5126,"count":72,"max":[0.046875,0.0625,0.23125000298023224],"min":[-0.046875,-0.0625,-0.09375],"type":"VEC3"},{"bufferView":9,"componentType":5126,"count":72,"max":[1,1,0.9805806875228882],"min":[-1,-1,-0.8944271802902222],"type":"VEC3"},{"bufferView":10,"componentType":5126,"count":72,"max":[0.765625,0.71875],"min":[0.0625,0],"type":"VEC2"},{"bufferView":11,"componentType":5123,"count":108,"max":[71],"min":[0],"type":"SCALAR"},{"bufferView":12,"componentType":5126,"count":24,"max":[0.03125,0.0625,0.0625],"min":[-0.03125,0,-0.0625],"type":"VEC3"},{"bufferView":13,"componentType":5126,"count":24,"max":[1,1,1],"min":[-1,-1,-1],"type":"VEC3"},{"bufferView":14,"componentType":5126,"count":24,"max":[0.75,0.78125],"min":[0.0625,0.1875],"type":"VEC2"},{"bufferView":15,"componentType":5123,"count":36,"max":[23],"min":[0],"type":"SCALAR"},{"bufferView":16,"componentType":5126,"count":24,"max":[0.046875,0.25,0.046875],"min":[-0.046875,0.0625,-0.046875],"type":"VEC3"},{"bufferView":17,"componentType":5126,"count":24,"max":[1,1,1],"min":[-1,-1,-1],"type":"VEC3"},{"bufferView":18,"componentType":5126,"count":24,"max":[0.703125,0.703125],"min":[0,0.28125],"type":"VEC2"},{"bufferView":19,"componentType":5123,"count":36,"max":[23],"min":[0],"type":"SCALAR"},{"bufferView":20,"componentType":5126,"count":60,"max":[0.0360843762755394,0.65625,0.03125],"min":[-0.0360843762755394,0.09375,-0.03125],"type":"VEC3"},{"bufferView":21,"componentType":5126,"count":60,"max":[0.8660292625427246,1,1],"min":[-0.8660292625427246,-1,-1],"type":"VEC3"},{"bufferView":22,"componentType":5126,"count":60,"max":[0.7602312564849854,0.875],"min":[0,0.375],"type":"VEC2"},{"bufferView":23,"componentType":5123,"count":72,"max":[59],"min":[0],"type":"SCALAR"},{"bufferView":24,"componentType":5126,"count":176,"max":[0.1307743787765503,0.0625,0.1307743787765503],"min":[-0.1307743787765503,0.03125,-0.1307743787765503],"type":"VEC3"},{"bufferView":25,"componentType":5126,"count":176,"max":[1,1,1],"min":[-1,-1,-1],"type":"VEC3"},{"bufferView":26,"componentType":5126,"count":176,"max":[0.859375,0.828125],"min":[0.004925000015646219,0],"type":"VEC2"},{"bufferView":27,"componentType":5123,"count":240,"max":[175],"min":[0],"type":"SCALAR"},{"bufferView":28,"componentType":5126,"count":80,"max":[0.0062500000931322575,0.11249999701976776,0.0062500000931322575],"min":[-0.0062500000931322575,0.078125,-0.0062500000931322575],"type":"VEC3"},{"bufferView":29,"componentType":5126,"count":80,"max":[1,0.8944271802902222,1],"min":[-1,-1,-1],"type":"VEC3"},{"bufferView":30,"componentType":5126,"count":80,"max":[0.885937511920929,0.9097437262535095],"min":[0.125,0.25],"type":"VEC2"},{"bufferView":31,"componentType":5123,"count":96,"max":[79],"min":[0],"type":"SCALAR"},{"bufferView":32,"componentType":5126,"count":80,"max":[0.0062500000931322575,-0.0078125,0.0062500000931322575],"min":[-0.0062500000931322575,-0.05624999850988388,-0.0062500000931322575],"type":"VEC3"},{"bufferView":33,"componentType":5126,"count":80,"max":[1,0.8436475992202759,1],"min":[-1,-0.800000011920929,-1],"type":"VEC3"},{"bufferView":34,"componentType":5126,"count":80,"max":[0.9153562784194946,0.921875],"min":[0.0625,0],"type":"VEC2"},{"bufferView":35,"componentType":5123,"count":96,"max":[79],"min":[0],"type":"SCALAR"},{"bufferView":36,"componentType":5126,"count":80,"max":[0.0062500000931322575,0.1171875,0.0062500000931322575],"min":[-0.0062500000931322575,0.06875000149011612,-0.0062500000931322575],"type":"VEC3"},{"bufferView":37,"componentType":5126,"count":80,"max":[1,0.8436475992202759,1],"min":[-1,-0.800000011920929,-1],"type":"VEC3"},{"bufferView":38,"componentType":5126,"count":80,"max":[0.9173809289932251,0.921875],"min":[0.004442812409251928,0.1875],"type":"VEC2"},{"bufferView":39,"componentType":5123,"count":96,"max":[79],"min":[0],"type":"SCALAR"}],"materials":[{"pbrMetallicRoughness":{"metallicFactor":0,"roughnessFactor":1,"baseColorTexture":{"index":0}},"alphaMode":"MASK","alphaCutoff":0.05,"doubleSided":true}],"textures":[{"sampler":0,"source":0,"name":"DrumGunTexture.png"}],"samplers":[{"magFilter":9728,"minFilter":9728,"wrapS":33071,"wrapT":33071}],"images":[{"mimeType":"image/png","uri":"data:image/png;base64,"}],"meshes":[{"primitives":[{"mode":4,"attributes":{"POSITION":0,"NORMAL":1,"TEXCOORD_0":2},"indices":3,"material":0}]},{"primitives":[{"mode":4,"attributes":{"POSITION":4,"NORMAL":5,"TEXCOORD_0":6},"indices":7,"material":0}]},{"primitives":[{"mode":4,"attributes":{"POSITION":8,"NORMAL":9,"TEXCOORD_0":10},"indices":11,"material":0}]},{"primitives":[{"mode":4,"attributes":{"POSITION":12,"NORMAL":13,"TEXCOORD_0":14},"indices":15,"material":0}]},{"primitives":[{"mode":4,"attributes":{"POSITION":16,"NORMAL":17,"TEXCOORD_0":18},"indices":19,"material":0}]},{"primitives":[{"mode":4,"attributes":{"POSITION":20,"NORMAL":21,"TEXCOORD_0":22},"indices":23,"material":0}]},{"primitives":[{"mode":4,"attributes":{"POSITION":24,"NORMAL":25,"TEXCOORD_0":26},"indices":27,"material":0}]},{"primitives":[{"mode":4,"attributes":{"POSITION":28,"NORMAL":29,"TEXCOORD_0":30},"indices":31,"material":0}]},{"primitives":[{"mode":4,"attributes":{"POSITION":32,"NORMAL":33,"TEXCOORD_0":34},"indices":35,"material":0}]},{"primitives":[{"mode":4,"attributes":{"POSITION":36,"NORMAL":37,"TEXCOORD_0":38},"indices":39,"material":0}]}]}