{"asset":{"version":"2.0","generator":"Blockbench 5.1.3 glTF exporter"},"scenes":[{"nodes":[0,1,2,3],"name":"blockbench_export"}],"scene":0,"nodes":[{"translation":[0,0.25,0],"name":"SlotMachineBody","mesh":0},{"rotation":[0,0,0.7071067811865475,0.7071067811865476],"translation":[-0.39375000000000004,1.8000000000000007,0.1875],"name":"HandleConnect","mesh":1},{"rotation":[0.6601410503592005,-0.2534044072834008,-0.6601410503592003,0.25340440728340086],"translation":[-0.799999999999999,2.2000000000000046,-0.16875000000000012],"name":"HandleBar","mesh":2},{"rotation":[-0.3214394653031616,0,0,0.9469301294951057],"translation":[-0.7937500000000003,2.2624999999999975,-0.21250000000000002],"name":"Knob","mesh":3}],"bufferViews":[{"buffer":0,"byteOffset":0,"byteLength":1344,"target":34962,"byteStride":12},{"buffer":0,"byteOffset":1344,"byteLength":1344,"target":34962,"byteStride":12},{"buffer":0,"byteOffset":2688,"byteLength":896,"target":34962,"byteStride":8},{"buffer":0,"byteOffset":3584,"byteLength":336,"target":34963},{"buffer":0,"byteOffset":3920,"byteLength":1200,"target":34962,"byteStride":12},{"buffer":0,"byteOffset":5120,"byteLength":1200,"target":34962,"byteStride":12},{"buffer":0,"byteOffset":6320,"byteLength":800,"target":34962,"byteStride":8},{"buffer":0,"byteOffset":7120,"byteLength":240,"target":34963},{"buffer":0,"byteOffset":7360,"byteLength":1200,"target":34962,"byteStride":12},{"buffer":0,"byteOffset":8560,"byteLength":1200,"target":34962,"byteStride":12},{"buffer":0,"byteOffset":9760,"byteLength":800,"target":34962,"byteStride":8},{"buffer":0,"byteOffset":10560,"byteLength":240,"target":34963},{"buffer":0,"byteOffset":10800,"byteLength":2160,"target":34962,"byteStride":12},{"buffer":0,"byteOffset":12960,"byteLength":2160,"target":34962,"byteStride":12},{"buffer":0,"byteOffset":15120,"byteLength":1440,"target":34962,"byteStride":8},{"buffer":0,"byteOffset":16560,"byteLength":480,"target":34963}],"buffers":[{"byteLength":17040,"uri":"data:application/octet-stream;base64,"}],"accessors":[{"bufferView":0,"componentType":5126,"count":112,"max":[0.5,2.9375,0.5],"min":[-0.5,-0.25,-0.5062500238418579],"type":"VEC3"},{"bufferView":1,"componentType":5126,"count":112,"max":[1,0.9943889379501343,1],"min":[-1,-1,-1],"type":"VEC3"},{"bufferView":2,"componentType":5126,"count":112,"max":[0.5390625,0.6171875],"min":[0,0],"type":"VEC2"},{"bufferView":3,"componentType":5123,"count":168,"max":[111],"min":[0],"type":"SCALAR"},{"bufferView":4,"componentType":5126,"count":100,"max":[0.0625,0.4375,0.0625],"min":[-0.0625,0.09375,-0.0625],"type":"VEC3"},{"bufferView":5,"componentType":5126,"count":100,"max":[0.955422580242157,0.8944271802902222,1],"min":[-0.955422580242157,-1,-1],"type":"VEC3"},{"bufferView":6,"componentType":5126,"count":100,"max":[0.4908829927444458,0.5234375],"min":[0.0859375,0.0625],"type":"VEC2"},{"bufferView":7,"componentType":5123,"count":120,"max":[99],"min":[0],"type":"SCALAR"},{"bufferView":8,"componentType":5126,"count":100,"max":[0.0625,0.6116076111793518,0.0625],"min":[-0.0625,-0.13750000298023224,-0.0625],"type":"VEC3"},{"bufferView":9,"componentType":5126,"count":100,"max":[0.955422580242157,0.9719887971878052,1],"min":[-0.955422580242157,-1,-1],"type":"VEC3"},{"bufferView":10,"componentType":5126,"count":100,"max":[0.4765625,0.49609375],"min":[0.1015625,0.0625],"type":"VEC2"},{"bufferView":11,"componentType":5123,"count":120,"max":[99],"min":[0],"type":"SCALAR"},{"bufferView":12,"componentType":5126,"count":180,"max":[0.11874999850988388,0.11874999850988388,0.11874999850988388],"min":[-0.11874999850988388,-0.11874999850988388,-0.11874999850988388],"type":"VEC3"},{"bufferView":13,"componentType":5126,"count":180,"max":[0.955422580242157,0.955422580242157,1],"min":[-0.955422580242157,-0.955422580242157,-1],"type":"VEC3"},{"bufferView":14,"componentType":5126,"count":180,"max":[0.50390625,0.5],"min":[0.15038545429706573,0.0625],"type":"VEC2"},{"bufferView":15,"componentType":5123,"count":240,"max":[179],"min":[0],"type":"SCALAR"}],"materials":[{"pbrMetallicRoughness":{"metallicFactor":0,"roughnessFactor":1,"baseColorTexture":{"index":0}},"alphaMode":"MASK","alphaCutoff":0.05,"doubleSided":true}],"textures":[{"sampler":0,"source":0,"name":"SlotMachine"}],"samplers":[{"magFilter":9728,"minFilter":9728,"wrapS":33071,"wrapT":33071}],"images":[{"mimeType":"image/png","uri":"data:image/png;base64,"}],"meshes":[{"primitives":[{"mode":4,"attributes":{"POSITION":0,"NORMAL":1,"TEXCOORD_0":2},"indices":3,"material":0}]},{"primitives":[{"mode":4,"attributes":{"POSITION":4,"NORMAL":5,"TEXCOORD_0":6},"indices":7,"material":0}]},{"primitives":[{"mode":4,"attributes":{"POSITION":8,"NORMAL":9,"TEXCOORD_0":10},"indices":11,"material":0}]},{"primitives":[{"mode":4,"attributes":{"POSITION":12,"NORMAL":13,"TEXCOORD_0":14},"indices":15,"material":0}]}]}